{
    "asset": {
        "generator": "FBX2glTF v0.9.7",
        "version": "2.0"
    },
    "scene": 0,
    "buffers": [
        {
            "byteLength": 191512,
            "uri": "data:application/octet-stream;base64,"
        }
    ],
    "bufferViews": [
        {
            "buffer": 0,
            "byteLength": 2712,
            "byteOffset": 0,
            "target": 34963
        },
        {
            "buffer": 0,
            "byteLength": 8196,
            "byteOffset": 2712,
            "target": 34962
        },
        {
            "buffer": 0,
            "byteLength": 8196,
            "byteOffset": 10908,
            "target": 34962
        },
        {
            "buffer": 0,
            "byteLength": 5464,
            "byteOffset": 19104,
            "target": 34962
        },
        {
            "buffer": 0,
            "byteLength": 3840,
            "byteOffset": 24568,
            "target": 34963
        },
        {
            "buffer": 0,
            "byteLength": 14328,
            "byteOffset": 28408,
            "target": 34962
        },
        {
            "buffer": 0,
            "byteLength": 14328,
            "byteOffset": 42736,
            "target": 34962
        },
        {
            "buffer": 0,
            "byteLength": 9552,
            "byteOffset": 57064,
            "target": 34962
        },
        {
            "buffer": 0,
            "byteLength": 3840,
            "byteOffset": 66616,
            "target": 34963
        },
        {
            "buffer": 0,
            "byteLength": 14328,
            "byteOffset": 70456,
            "target": 34962
        },
        {
            "buffer": 0,
            "byteLength": 14328,
            "byteOffset": 84784,
            "target": 34962
        },
        {
            "buffer": 0,
            "byteLength": 9552,
            "byteOffset": 99112,
            "target": 34962
        },
        {
            "buffer": 0,
            "byteLength": 3408,
            "byteOffset": 108664,
            "target": 34963
        },
        {
            "buffer": 0,
            "byteLength": 12912,
            "byteOffset": 112072,
            "target": 34962
        },
        {
            "buffer": 0,
            "byteLength": 12912,
            "byteOffset": 124984,
            "target": 34962
        },
        {
            "buffer": 0,
            "byteLength": 8608,
            "byteOffset": 137896,
            "target": 34962
        },
        {
            "buffer": 0,
            "byteLength": 2112,
            "byteOffset": 146504,
            "target": 34963
        },
        {
            "buffer": 0,
            "byteLength": 7512,
            "byteOffset": 148616,
            "target": 34962
        },
        {
            "buffer": 0,
            "byteLength": 7512,
            "byteOffset": 156128,
            "target": 34962
        },
        {
            "buffer": 0,
            "byteLength": 5008,
            "byteOffset": 163640,
            "target": 34962
        },
        {
            "buffer": 0,
            "byteLength": 720,
            "byteOffset": 168648,
            "target": 34963
        },
        {
            "buffer": 0,
            "byteLength": 2400,
            "byteOffset": 169368,
            "target": 34962
        },
        {
            "buffer": 0,
            "byteLength": 2400,
            "byteOffset": 171768,
            "target": 34962
        },
        {
            "buffer": 0,
            "byteLength": 1600,
            "byteOffset": 174168,
            "target": 34962
        },
        {
            "buffer": 0,
            "byteLength": 240,
            "byteOffset": 175768,
            "target": 34963
        },
        {
            "buffer": 0,
            "byteLength": 960,
            "byteOffset": 176008,
            "target": 34962
        },
        {
            "buffer": 0,
            "byteLength": 960,
            "byteOffset": 176968,
            "target": 34962
        },
        {
            "buffer": 0,
            "byteLength": 640,
            "byteOffset": 177928,
            "target": 34962
        },
        {
            "buffer": 0,
            "byteLength": 1104,
            "byteOffset": 178568,
            "target": 34963
        },
        {
            "buffer": 0,
            "byteLength": 4440,
            "byteOffset": 179672,
            "target": 34962
        },
        {
            "buffer": 0,
            "byteLength": 4440,
            "byteOffset": 184112,
            "target": 34962
        },
        {
            "buffer": 0,
            "byteLength": 2960,
            "byteOffset": 188552,
            "target": 34962
        }
    ],
    "scenes": [
        {
            "name": "Root Scene",
            "nodes": [
                0
            ]
        }
    ],
    "accessors": [
        {
            "componentType": 5123,
            "type": "SCALAR",
            "count": 1356,
            "bufferView": 0,
            "byteOffset": 0
        },
        {
            "componentType": 5126,
            "type": "VEC3",
            "count": 683,
            "bufferView": 1,
            "byteOffset": 0,
            "min": [
                -0.0025748151820153,
                -0.00743718771263957,
                -0.00162397918757051
            ],
            "max": [
                0.0025748151820153,
                0.0095357745885849,
                0.00207409565337002
            ]
        },
        {
            "componentType": 5126,
            "type": "VEC3",
            "count": 683,
            "bufferView": 2,
            "byteOffset": 0
        },
        {
            "componentType": 5126,
            "type": "VEC2",
            "count": 683,
            "bufferView": 3,
            "byteOffset": 0
        },
        {
            "componentType": 5123,
            "type": "SCALAR",
            "count": 1920,
            "bufferView": 4,
            "byteOffset": 0
        },
        {
            "componentType": 5126,
            "type": "VEC3",
            "count": 1194,
            "bufferView": 5,
            "byteOffset": 0,
            "min": [
                -0.000875091995112598,
                -0.000888591690454632,
                -0.00149457133375108
            ],
            "max": [
                0.00822797324508429,
                0.000888591748662293,
                0.00107651972211897
            ]
        },
        {
            "componentType": 5126,
            "type": "VEC3",
            "count": 1194,
            "bufferView": 6,
            "byteOffset": 0
        },
        {
            "componentType": 5126,
            "type": "VEC2",
            "count": 1194,
            "bufferView": 7,
            "byteOffset": 0
        },
        {
            "componentType": 5123,
            "type": "SCALAR",
            "count": 1920,
            "bufferView": 8,
            "byteOffset": 0
        },
        {
            "componentType": 5126,
            "type": "VEC3",
            "count": 1194,
            "bufferView": 9,
            "byteOffset": 0,
            "min": [
                -0.00105168938171118,
                -0.00106791348662227,
                -0.00279612559825182
            ],
            "max": [
                0.00930159166455269,
                0.00106791337020695,
                0.00129376619588584
            ]
        },
        {
            "componentType": 5126,
            "type": "VEC3",
            "count": 1194,
            "bufferView": 10,
            "byteOffset": 0
        },
        {
            "componentType": 5126,
            "type": "VEC2",
            "count": 1194,
            "bufferView": 11,
            "byteOffset": 0
        },
        {
            "componentType": 5123,
            "type": "SCALAR",
            "count": 1704,
            "bufferView": 12,
            "byteOffset": 0
        },
        {
            "componentType": 5126,
            "type": "VEC3",
            "count": 1076,
            "bufferView": 13,
            "byteOffset": 0,
            "min": [
                -0.00104928715154529,
                -0.00106547423638403,
                -0.00538081349804997
            ],
            "max": [
                0.00394616276025772,
                0.00106547400355339,
                0.00137878744862974
            ]
        },
        {
            "componentType": 5126,
            "type": "VEC3",
            "count": 1076,
            "bufferView": 14,
            "byteOffset": 0
        },
        {
            "componentType": 5126,
            "type": "VEC2",
            "count": 1076,
            "bufferView": 15,
            "byteOffset": 0
        },
        {
            "componentType": 5123,
            "type": "SCALAR",
            "count": 1056,
            "bufferView": 16,
            "byteOffset": 0
        },
        {
            "componentType": 5126,
            "type": "VEC3",
            "count": 626,
            "bufferView": 17,
            "byteOffset": 0,
            "min": [
                -0.000761019473429769,
                -0.00094283907674253,
                -0.000772759551182389
            ],
            "max": [
                0.00250339647755027,
                0.00186760385986418,
                0.000772759551182389
            ]
        },
        {
            "componentType": 5126,
            "type": "VEC3",
            "count": 626,
            "bufferView": 18,
            "byteOffset": 0
        },
        {
            "componentType": 5126,
            "type": "VEC2",
            "count": 626,
            "bufferView": 19,
            "byteOffset": 0
        },
        {
            "componentType": 5123,
            "type": "SCALAR",
            "count": 360,
            "bufferView": 20,
            "byteOffset": 0
        },
        {
            "componentType": 5126,
            "type": "VEC3",
            "count": 200,
            "bufferView": 21,
            "byteOffset": 0,
            "min": [
                -0.000220896778046153,
                -0.000329973350744694,
                -0.000100901270343456
            ],
            "max": [
                0.00195267365779728,
                0.00504546100273728,
                0.000203318704734556
            ]
        },
        {
            "componentType": 5126,
            "type": "VEC3",
            "count": 200,
            "bufferView": 22,
            "byteOffset": 0
        },
        {
            "componentType": 5126,
            "type": "VEC2",
            "count": 200,
            "bufferView": 23,
            "byteOffset": 0
        },
        {
            "componentType": 5123,
            "type": "SCALAR",
            "count": 120,
            "bufferView": 24,
            "byteOffset": 0
        },
        {
            "componentType": 5126,
            "type": "VEC3",
            "count": 80,
            "bufferView": 25,
            "byteOffset": 0,
            "min": [
                -0.000317867757985368,
                -0.000647200562525541,
                -0.000905087275896221
            ],
            "max": [
                0.00638650357723236,
                8.44093374325894e-05,
                0.000571398180909455
            ]
        },
        {
            "componentType": 5126,
            "type": "VEC3",
            "count": 80,
            "bufferView": 26,
            "byteOffset": 0
        },
        {
            "componentType": 5126,
            "type": "VEC2",
            "count": 80,
            "bufferView": 27,
            "byteOffset": 0
        },
        {
            "componentType": 5123,
            "type": "SCALAR",
            "count": 552,
            "bufferView": 28,
            "byteOffset": 0
        },
        {
            "componentType": 5126,
            "type": "VEC3",
            "count": 370,
            "bufferView": 29,
            "byteOffset": 0,
            "min": [
                -0.00108709861524403,
                -0.000354738789610565,
                -0.00081120862159878
            ],
            "max": [
                0.00932812876999378,
                0.00345275481231511,
                -1.70389939739835e-05
            ]
        },
        {
            "componentType": 5126,
            "type": "VEC3",
            "count": 370,
            "bufferView": 30,
            "byteOffset": 0
        },
        {
            "componentType": 5126,
            "type": "VEC2",
            "count": 370,
            "bufferView": 31,
            "byteOffset": 0
        }
    ],
    "samplers": [
        {}
    ],
    "materials": [
        {
            "name": "DefaultMaterial",
            "alphaMode": "OPAQUE",
            "extras": {
                "fromFBX": {
                    "shadingModel": "Lambert",
                    "isTruePBR": false
                }
            },
            "pbrMetallicRoughness": {
                "baseColorFactor": [
                    0.5,
                    0.5,
                    0.5,
                    1.0
                ],
                "metallicFactor": 0.200000002980232,
                "roughnessFactor": 0.800000011920929
            }
        }
    ],
    "meshes": [
        {
            "name": "body",
            "primitives": [
                {
                    "material": 0,
                    "mode": 4,
                    "attributes": {
                        "NORMAL": 2,
                        "POSITION": 1,
                        "TEXCOORD_0": 3
                    },
                    "indices": 0
                }
            ]
        },
        {
            "name": "front_enge",
            "primitives": [
                {
                    "material": 0,
                    "mode": 4,
                    "attributes": {
                        "NORMAL": 6,
                        "POSITION": 5,
                        "TEXCOORD_0": 7
                    },
                    "indices": 4
                }
            ]
        },
        {
            "name": "midle_enge",
            "primitives": [
                {
                    "material": 0,
                    "mode": 4,
                    "attributes": {
                        "NORMAL": 10,
                        "POSITION": 9,
                        "TEXCOORD_0": 11
                    },
                    "indices": 8
                }
            ]
        },
        {
            "name": "Cylinder",
            "primitives": [
                {
                    "material": 0,
                    "mode": 4,
                    "attributes": {
                        "NORMAL": 14,
                        "POSITION": 13,
                        "TEXCOORD_0": 15
                    },
                    "indices": 12
                }
            ]
        },
        {
            "name": "Cylinder.001",
            "primitives": [
                {
                    "material": 0,
                    "mode": 4,
                    "attributes": {
                        "NORMAL": 18,
                        "POSITION": 17,
                        "TEXCOORD_0": 19
                    },
                    "indices": 16
                }
            ]
        },
        {
            "name": "Cube",
            "primitives": [
                {
                    "material": 0,
                    "mode": 4,
                    "attributes": {
                        "NORMAL": 22,
                        "POSITION": 21,
                        "TEXCOORD_0": 23
                    },
                    "indices": 20
                }
            ]
        },
        {
            "name": "front_enge.001",
            "primitives": [
                {
                    "material": 0,
                    "mode": 4,
                    "attributes": {
                        "NORMAL": 26,
                        "POSITION": 25,
                        "TEXCOORD_0": 27
                    },
                    "indices": 24
                }
            ]
        },
        {
            "name": "Plane",
            "primitives": [
                {
                    "material": 0,
                    "mode": 4,
                    "attributes": {
                        "NORMAL": 30,
                        "POSITION": 29,
                        "TEXCOORD_0": 31
                    },
                    "indices": 28
                }
            ]
        }
    ],
    "nodes": [
        {
            "name": "RootNode",
            "translation": [
                0.0,
                0.0,
                0.0
            ],
            "rotation": [
                0.0,
                0.0,
                0.0,
                1.0
            ],
            "scale": [
                1.0,
                1.0,
                1.0
            ],
            "children": [
                1,
                2,
                3,
                4,
                5,
                6,
                7,
                8
            ]
        },
        {
            "name": "body",
            "translation": [
                0.0,
                0.0,
                0.0
            ],
            "rotation": [
                -0.707106828689575,
                0.0,
                0.0,
                0.707106709480286
            ],
            "scale": [
                100.0,
                100.0,
                100.0
            ],
            "mesh": 0
        },
        {
            "name": "front_enge",
            "translation": [
                -0.367644071578979,
                -0.0742529630661011,
                0.145355924963951
            ],
            "rotation": [
                2.1855694143369e-08,
                0.0,
                0.0,
                1.0
            ],
            "scale": [
                100.0,
                100.0,
                100.0
            ],
            "mesh": 1
        },
        {
            "name": "midle_enge",
            "translation": [
                -0.412495106458664,
                -0.00904122367501259,
                -0.174433797597885
            ],
            "rotation": [
                2.1855694143369e-08,
                0.0,
                0.0,
                1.0
            ],
            "scale": [
                100.0,
                100.0,
                100.0
            ],
            "mesh": 2
        },
        {
            "name": "Cylinder",
            "translation": [
                -0.144843801856041,
                0.0422917082905769,
                -0.360559463500977
            ],
            "rotation": [
                2.1855694143369e-08,
                0.0,
                0.0,
                1.0
            ],
            "scale": [
                100.0,
                100.0,
                100.0
            ],
            "mesh": 3
        },
        {
            "name": "Cylinder.001",
            "translation": [
                -0.095551572740078,
                0.178163424134254,
                -0.903977632522583
            ],
            "rotation": [
                2.08957438019297e-08,
                -6.40619290948052e-09,
                -0.293113172054291,
                0.956077754497528
            ],
            "scale": [
                100.0,
                100.0,
                100.0
            ],
            "mesh": 4
        },
        {
            "name": "Cube",
            "translation": [
                -0.0865888372063637,
                0.217962071299553,
                -0.972586929798126
            ],
            "rotation": [
                -0.707106828689575,
                0.0,
                0.0,
                0.707106709480286
            ],
            "scale": [
                100.0,
                100.0,
                100.0
            ],
            "mesh": 5
        },
        {
            "name": "front_enge.001",
            "translation": [
                -0.305465072393417,
                -0.0143211549147964,
                0.117325387895107
            ],
            "rotation": [
                2.15920472612652e-08,
                -5.13537168345124e-09,
                0.0407152809202671,
                0.999170780181885
            ],
            "scale": [
                100.000007629395,
                100.000007629395,
                100.0
            ],
            "mesh": 6
        },
        {
            "name": "Plane",
            "translation": [
                -0.412051528692245,
                0.115445286035538,
                -0.177147269248962
            ],
            "rotation": [
                -0.707106828689575,
                0.0,
                0.0,
                0.707106709480286
            ],
            "scale": [
                100.0,
                100.0,
                100.0
            ],
            "mesh": 7
        }
    ]
}